
<svg id="orange_logo" xmlns="http://www.w3.org/2000/svg" viewBox="0 0 383.65 395.76">
  <path id="orangeEight" d="M154.3,202.59H79.59c-30.65,0-51.45,31.17-39.68,59.48h0c11.77,28.3,48.54,35.53,70.15,13.79l52.68-52.99c7.46-7.5,2.15-20.28-8.44-20.28Z" style="fill: #f37321;"/>
  <path id="orangeSeven" d="M165.83,231.73l-52.83,52.83c-21.67,21.67-14.34,58.42,14,70.11h0c28.34,11.69,59.45-9.2,59.36-39.85l-.22-74.72c-.03-10.58-12.83-15.86-20.31-8.38Z" style="fill: #f37321;"/>
  <path id="orangeSix" d="M220.91,222.87l52.68,52.99c21.61,21.74,58.38,14.51,70.15-13.79h0c11.77-28.3-9.02-59.48-39.68-59.48h-74.72c-10.58,0-15.9,12.78-8.44,20.28Z" style="fill: #f37321;"/>
  <path id="orangeFive" d="M197.8,241.16l-.21,73.67c-.09,30.65,31.02,51.54,59.36,39.85h0c28.34-11.69,35.67-48.44,14-70.11l-52.09-52.09c-7.76-7.76-21.02-2.29-21.05,8.68Z" style="fill: #f37321;"/>
  <path id="orangeFour" d="M229.35,193.17h74.72c30.65,0,51.45-31.17,39.68-59.48h0c-11.77-28.3-48.54-35.53-70.15-13.79l-52.68,52.99c-7.46,7.5-2.15,20.28,8.44,20.28Z" style="fill: #f37321;"/>
  <path id="orangethree" d="M217.82,164.03l52.83-52.83c21.67-21.67,14.34-58.42-14-70.11h0c-28.34-11.69-59.45,9.2-59.36,39.85l.22,74.72c.03,10.58,12.83,15.86,20.31,8.38Z" style="fill: #f37321;"/>
  <path id="orangeTwo" d="M162.74,172.89l-52.68-52.99c-21.61-21.74-58.38-14.51-70.15,13.79h0c-11.77,28.3,9.02,59.48,39.68,59.48h74.72c10.58,0,15.9-12.78,8.44-20.28Z" style="fill: #f37321;"/>
  <path id="orangeOne" d="M185.85,154.6l.21-73.67c.09-30.65-31.02-51.54-59.36-39.85h0c-28.34,11.69-35.67,48.44-14,70.11l52.09,52.09c7.76,7.76,21.02,2.29,21.05-8.68Z" style="fill: #f37321;"/>
  <path id="orangeCirlce" d="M368.83,119.03c-9.54-23.24-23.23-44.07-40.69-61.92-17.53-17.92-38.03-31.98-60.93-41.79C243.47,5.16,218.11,0,191.82,0s-51.65,5.16-75.39,15.32c-22.9,9.81-43.39,23.87-60.93,41.79-17.46,17.85-31.15,38.68-40.69,61.92C4.98,142.97,0,168.45,0,194.76v6.24c0,26.31,4.98,51.78,14.81,75.72,9.54,23.24,23.23,44.07,40.69,61.92,17.53,17.92,38.03,31.98,60.93,41.79,23.74,10.17,49.11,15.32,75.39,15.32s51.65-5.16,75.39-15.32c22.9-9.81,43.39-23.87,60.93-41.79,17.46-17.85,31.15-38.68,40.69-61.92,9.73-23.69,14.7-48.89,14.8-74.91h0v-7.06c0-26.31-4.98-51.78-14.81-75.72Zm-16.55,150.9c-8.66,21.1-21.09,40.01-36.93,56.2-32.63,33.36-76.5,51.73-123.53,51.73s-90.89-18.37-123.53-51.73c-15.84-16.2-28.27-35.11-36.93-56.2-8.94-21.77-13.47-44.97-13.47-68.93v-6.24s0,0,0,0c0-23.96,4.53-47.15,13.47-68.92,8.66-21.1,21.09-40.01,36.93-56.2,32.63-33.36,76.5-51.73,123.53-51.73s90.89,18.37,123.53,51.73c15.84,16.2,28.27,35.11,36.93,56.2,8.94,21.77,13.47,44.96,13.47,68.92v6.25c0,23.96-4.53,47.15-13.47,68.93Z" style="fill: #f37321;"/>
</svg>